<svg width="32" height="32" viewBox="0 0 32 32" fill="none" xmlns="http://www.w3.org/2000/svg">
<path fill-rule="evenodd" clip-rule="evenodd" d="M9.15875 0.926874C10.8205 0.850374 11.3503 0.833374 15.5833 0.833374C19.8163 0.833374 20.3462 0.851791 22.0065 0.926874C23.6668 1.00196 24.8002 1.26687 25.7918 1.65079C26.8302 2.04321 27.7723 2.65662 28.5515 3.44996C29.3448 4.22771 29.9568 5.16837 30.3478 6.20821C30.7332 7.19987 30.9967 8.33321 31.0732 9.99071C31.1497 11.6553 31.1667 12.1851 31.1667 16.4167C31.1667 20.6497 31.1482 21.1795 31.0732 22.8413C30.9981 24.4988 30.7332 25.6321 30.3478 26.6238C29.9568 27.6638 29.3438 28.606 28.5515 29.3849C27.7723 30.1782 26.8302 30.7902 25.7918 31.1812C24.8002 31.5665 23.6668 31.83 22.0093 31.9065C20.3462 31.983 19.8163 32 15.5833 32C11.3503 32 10.8205 31.9816 9.15875 31.9065C7.50125 31.8315 6.36792 31.5665 5.37625 31.1812C4.3363 30.7902 3.39408 30.1772 2.61517 29.3849C1.82237 28.6067 1.20886 27.6649 0.817417 26.6252C0.4335 25.6335 0.17 24.5002 0.0935 22.8427C0.017 21.1781 0 20.6483 0 16.4167C0 12.1837 0.0184166 11.6539 0.0935 9.99354C0.168583 8.33321 0.4335 7.19987 0.817417 6.20821C1.20944 5.16849 1.82342 4.22673 2.61658 3.44854C3.39439 2.65592 4.33567 2.04242 5.37483 1.65079C6.3665 1.26687 7.49983 1.00337 9.15733 0.926874H9.15875ZM21.8804 3.73187C20.2371 3.65679 19.7441 3.64121 15.5833 3.64121C11.4226 3.64121 10.9296 3.65679 9.28625 3.73187C7.76617 3.80129 6.94167 4.05487 6.392 4.26879C5.66525 4.55212 5.14533 4.88787 4.59992 5.43329C4.0829 5.93628 3.68501 6.54861 3.43542 7.22537C3.2215 7.77504 2.96792 8.59954 2.8985 10.1196C2.82342 11.763 2.80783 12.256 2.80783 16.4167C2.80783 20.5775 2.82342 21.0705 2.8985 22.7138C2.96792 24.2339 3.2215 25.0584 3.43542 25.608C3.68475 26.2838 4.08283 26.8972 4.59992 27.4001C5.10283 27.9172 5.71625 28.3153 6.392 28.5646C6.94167 28.7785 7.76617 29.0321 9.28625 29.1015C10.9296 29.1766 11.4212 29.1922 15.5833 29.1922C19.7455 29.1922 20.2371 29.1766 21.8804 29.1015C23.4005 29.0321 24.225 28.7785 24.7747 28.5646C25.5014 28.2813 26.0213 27.9455 26.5667 27.4001C27.0838 26.8972 27.4819 26.2838 27.7313 25.608C27.9452 25.0584 28.1987 24.2339 28.2682 22.7138C28.3433 21.0705 28.3588 20.5775 28.3588 16.4167C28.3588 12.256 28.3433 11.763 28.2682 10.1196C28.1987 8.59954 27.9452 7.77504 27.7313 7.22537C27.4479 6.49862 27.1122 5.97871 26.5667 5.43329C26.0637 4.91631 25.4514 4.51842 24.7747 4.26879C24.225 4.05487 23.4005 3.80129 21.8804 3.73187ZM13.5929 21.2206C14.7045 21.6834 15.9423 21.7458 17.0948 21.3973C18.2473 21.0488 19.2431 20.311 19.9121 19.3099C20.5811 18.3088 20.8817 17.1064 20.7627 15.9083C20.6437 14.7101 20.1124 13.5904 19.2596 12.7405C18.7159 12.1971 18.0585 11.7811 17.3348 11.5223C16.6111 11.2636 15.8389 11.1685 15.074 11.2439C14.3091 11.3194 13.5705 11.5635 12.9112 11.9586C12.252 12.3538 11.6886 12.8903 11.2615 13.5293C10.8345 14.1684 10.5544 14.8942 10.4416 15.6545C10.3287 16.4148 10.3858 17.1906 10.6088 17.9262C10.8317 18.6618 11.215 19.3387 11.731 19.9084C12.247 20.4781 12.8829 20.9262 13.5929 21.2206ZM9.9195 10.7529C10.6633 10.0091 11.5463 9.41909 12.5181 9.01655C13.4899 8.61402 14.5315 8.40684 15.5833 8.40684C16.6352 8.40684 17.6768 8.61402 18.6486 9.01655C19.6204 9.41909 20.5034 10.0091 21.2472 10.7529C21.991 11.4967 22.581 12.3797 22.9835 13.3515C23.386 14.3233 23.5932 15.3648 23.5932 16.4167C23.5932 17.4686 23.386 18.5101 22.9835 19.482C22.581 20.4538 21.991 21.3368 21.2472 22.0805C19.745 23.5827 17.7077 24.4266 15.5833 24.4266C13.459 24.4266 11.4216 23.5827 9.9195 22.0805C8.41736 20.5784 7.57346 18.5411 7.57346 16.4167C7.57346 14.2924 8.41736 12.255 9.9195 10.7529ZM25.3697 9.59971C25.554 9.42584 25.7015 9.21675 25.8036 8.98484C25.9057 8.75292 25.9601 8.50288 25.9638 8.24952C25.9675 7.99617 25.9204 7.74465 25.8251 7.50985C25.7298 7.27506 25.5884 7.06176 25.4093 6.8826C25.2301 6.70343 25.0168 6.56203 24.782 6.46677C24.5472 6.37152 24.2957 6.32434 24.0423 6.32803C23.789 6.33173 23.539 6.38622 23.307 6.48828C23.0751 6.59034 22.866 6.73789 22.6922 6.92221C22.354 7.28067 22.1689 7.7568 22.1761 8.24952C22.1833 8.74225 22.3822 9.21279 22.7306 9.56123C23.0791 9.90968 23.5496 10.1086 24.0423 10.1158C24.5351 10.123 25.0112 9.93785 25.3697 9.59971Z" fill="white"/>
</svg>
