<svg width="34" height="34" viewBox="0 0 34 34" fill="none" xmlns="http://www.w3.org/2000/svg">
<path fill-rule="evenodd" clip-rule="evenodd" d="M0 17.095C0 25.5468 6.13842 32.5749 14.1667 34.0001V21.7218H9.91667V17.0001H14.1667V13.2218C14.1667 8.97181 16.9051 6.61164 20.7782 6.61164C22.0051 6.61164 23.3282 6.80006 24.5551 6.98848V11.3334H22.3833C20.3051 11.3334 19.8333 12.3718 19.8333 13.695V17.0001H24.3667L23.6116 21.7218H19.8333V34.0001C27.8616 32.5749 34 25.5482 34 17.095C34 7.69256 26.35 6.10352e-05 17 6.10352e-05C7.65 6.10352e-05 0 7.69256 0 17.095Z" fill="white"/>
</svg>
