<svg width="34" height="35" viewBox="0 0 34 35" fill="none" xmlns="http://www.w3.org/2000/svg">
<path fill-rule="evenodd" clip-rule="evenodd" d="M24.6713 21.2079C24.2491 20.9968 22.1793 19.9796 21.794 19.838C21.4087 19.6977 21.1282 19.6283 20.8463 20.0505C20.5658 20.4698 19.7597 21.419 19.5146 21.6995C19.2681 21.9814 19.023 22.0154 18.6023 21.8057C18.1815 21.5932 16.8243 21.1498 15.2164 19.7161C13.9655 18.5998 13.1198 17.2214 12.8747 16.7992C12.6296 16.3785 12.8478 16.1504 13.0588 15.9407C13.2487 15.7523 13.4796 15.4491 13.6907 15.204C13.9018 14.9575 13.9712 14.7819 14.1114 14.5C14.2531 14.2195 14.1823 13.9744 14.076 13.7633C13.9712 13.5522 13.1297 11.4796 12.7783 10.6367C12.4369 9.81645 12.0898 9.92837 11.832 9.9142C11.5855 9.90287 11.305 9.90004 11.0245 9.90004C10.744 9.90004 10.2878 10.0049 9.9025 10.427C9.51575 10.8478 8.42917 11.8664 8.42917 13.939C8.42917 16.0101 9.9365 18.0119 10.1476 18.2938C10.3587 18.5743 13.1155 22.8271 17.3386 24.6504C18.3444 25.0839 19.1278 25.3431 19.7384 25.5358C20.7471 25.8574 21.6651 25.812 22.3904 25.703C23.1979 25.5825 24.8809 24.6844 25.2323 23.7012C25.5822 22.718 25.5822 21.8751 25.4773 21.6995C25.3725 21.5238 25.092 21.419 24.6698 21.2079H24.6713ZM16.9901 31.6955H16.9844C14.4761 31.6959 12.0139 31.0216 9.85575 29.7433L9.34575 29.4401L4.04458 30.8313L5.45983 25.6633L5.12692 25.1335C3.72461 22.9013 2.9825 20.3179 2.98633 17.6818C2.98917 9.96095 9.27067 3.67945 16.9958 3.67945C20.7358 3.67945 24.2519 5.13862 26.8954 7.78495C28.1993 9.08344 29.2327 10.6276 29.936 12.3281C30.6392 14.0285 30.9983 15.8516 30.9924 17.6917C30.9896 25.4125 24.7081 31.6955 16.9901 31.6955ZM28.9071 5.7747C27.3462 4.20351 25.489 2.95772 23.4431 2.1095C21.3973 1.26129 19.2034 0.827538 16.9887 0.833371C7.70383 0.833371 0.1445 8.39129 0.141667 17.6804C0.137364 20.6366 0.912864 23.5417 2.38992 26.1025L0 34.8334L8.93067 32.4902C11.4012 33.8362 14.1696 34.5415 16.983 34.5415H16.9901C26.2749 34.5415 33.8343 26.9836 33.8371 17.6931C33.8439 15.4793 33.4117 13.286 32.5655 11.2403C31.7193 9.19449 30.4758 7.33682 28.9071 5.7747Z" fill="white"/>
</svg>
